<?xml version="1.0" standalone="no"?>
<!DOCTYPE svg PUBLIC "-//W3C//DTD SVG 1.1//EN" "http://www.w3.org/Graphics/SVG/1.1/DTD/svg11.dtd" >
<svg xmlns="http://www.w3.org/2000/svg" xmlns:xlink="http://www.w3.org/1999/xlink" version="1.1">
<metadata>
Created by FontForge 20150522 at Sat Jan  2 18:32:26 2016
 By Christoph Haag,,,
Copyright 2012 Adobe Systems Incorporated. All rights reserved.
</metadata>
<defs>
<font id="PAPERWORKBlack" horiz-adv-x="474" >
  <font-face 
    font-family="PAPERWORK Black"
    font-weight="400"
    font-stretch="normal"
    units-per-em="1000"
    panose-1="0 0 0 0 0 0 0 0 0 0"
    ascent="750"
    descent="-250"
    x-height="451"
    cap-height="678"
    bbox="-64 -244 790 689"
    underline-thickness="50"
    underline-position="-100"
    unicode-range="U+0020-007A"
  />
<missing-glyph horiz-adv-x="301" 
 />
    <glyph glyph-name=".notdef" horiz-adv-x="301" 
 />
    <glyph glyph-name="B" unicode="B" horiz-adv-x="504" 
d="M466 562l20 -20v-135h-20h-4h-22h-5h-21h-5h-19h-7h-19v139v118l19 -20l7 -6l19 -20l5 -4l21 -22l5 -4l22 -22zM353 557h-179h-135v20v6v20v4v22v5v21v5v19h314v-19v-5v-21v-5v-22v-4v-20v-6v-20zM163 261v-124h-124v409h124v-139v-146zM174 376v20h179v-120l-5 -4h-174
v21v5v22v4v20v6v20v6zM39 -1v124h431l-122 -122zM364 287v94l122 -125v-122h-122v138v0v15v0zM420 344l-4 -3l-52 55h106l-19 -20l-5 -6l-21 -20z" />
    <glyph glyph-name="C" unicode="C" horiz-adv-x="494" 
d="M165 679h307v-20v-6v-19v-7v-19v-5v-22v-3v-23h-307v23v3v22v5v19v7v19v6v20zM45 124h120h307v-124h-303zM56 135h-5h-22v405l22 22l5 3l21 20l5 8l19 19l6 6l20 20l7 6l20 20v-120v-409h-20h-7h-20h-6h-19h-5h-21z" />
    <glyph glyph-name="D" unicode="D" horiz-adv-x="503" 
d="M461 562l20 -21v-406h-20h-4h-22h-4h-22h-4h-20h-7h-19v410v120l19 -20l7 -6l20 -20l4 -6l22 -20l4 -7l22 -19zM348 556h-179h-135v22v4v22v4v20v6v20v7v19h314v-19v-7v-20v-6v-20v-4v-22v-4v-22zM158 545v-410h-124v410h124zM34 0v124h432l-122 -124h-310z" />
    <glyph glyph-name="E" unicode="E" horiz-adv-x="484" 
d="M169 388h288v-126h-288h-11h-127v0v126v0h127h11zM458 573v-22h-289v22v4v22v5v20v6v20v7v20h289v-20v-7v-20v-6v-20v-5v-22v-4zM158 539v-139h-127v135l20 22l7 5l20 22l6 4l20 20l5 7l22 20l5 7l22 20v-123zM158 127h11h288v-127h-288h-138v127v0h127zM158 251v-113
h-127v113h127z" />
    <glyph glyph-name="F" unicode="F" horiz-adv-x="444" 
d="M423 576v-22h-260v22v4v22v4v20v6v20v6v20h260v-20v-6v-20v-6v-20v-4v-22v-4zM152 543v-138h-124v133l22 22l4 5l20 21l6 5l20 19l6 7l20 20l7 6l19 20v-120zM28 0v259h124v-259h-19h-7h-20h-6h-20h-6h-20h-4h-22zM163 395h255v-125h-255h-11h-124v0v125v0h124h11z" />
    <glyph glyph-name="G" unicode="G" horiz-adv-x="496" 
d="M342 396l124 -124h-120h-107v124h103zM459 577v-20h-302v20v6v20v4v22v4v20v6v20h302v-20v-6v-20v-4v-22v-4v-20v-6zM48 135h-7h-19v407l19 19l7 5l19 22l7 4l19 22l5 4l22 20l4 6l22 20v-118v-411h-22h-4h-22h-5h-19h-7h-19zM37 124h120h189v-20v-6v-20v-6v-20v-6v-20
v-4v-22h-185l-22 22l-4 4l-20 20l-6 6l-20 20l-6 6l-20 20l-7 6zM459 261h22v-122l-22 -19l-4 -7l-20 -19l-6 -7l-20 -20l-7 -4l-19 -22l-7 -4l-19 -22v120v126h19h7h19h7h20h6h20h4z" />
    <glyph glyph-name="H" unicode="H" horiz-adv-x="509" 
d="M153 679v-283l-124 -125v408h22h4h19h7h20h6h20h6h20zM29 1v259h124v-259h-20h-6h-20h-6h-20h-7h-19h-4h-22zM44 271l124 125h179v-125h-183h-11h-109zM358 679h124v-678h-124v259v146v273z" />
    <glyph glyph-name="I" unicode="I" horiz-adv-x="323" 
d="M244 678h61v-20v-4v-22v-4v-22v-4v-20v-6v-20h-61v122zM233 678l-122 -122h-93v20v6v20v4v22v4v22v4v20h215zM100 124h144h61v-124h-287v124h82zM111 541l5 4l10 11l107 106v-106v-11v-410h-122v406z" />
    <glyph glyph-name="J" unicode="J" horiz-adv-x="470" 
d="M168 658v20h215l-122 -122h-93v20v6v20v4v22v4v22v4zM15 140v113h124v-118v-120zM150 124h100h118l-20 -22l-4 -4l-22 -22l-4 -4l-22 -20l-4 -6l-20 -20l-6 -6l-20 -20h-96v20v6v20v6v20v4v22v4v22zM359 639l5 4l19 20v-107v-11v-410h-19h-5h-21h-5h-19h-7h-20h-6h-20
v406l5 4l11 11l4 4l6 7l20 19l7 5l19 22l5 4zM394 678h63v-20v-4v-22v-4v-22v-4v-20v-6v-20h-63v122z" />
    <glyph glyph-name="K" unicode="K" horiz-adv-x="503" 
d="M85 427l65 50l11 9l251 188l13 -16l2 -4l13 -17l2 -5l13 -15l3 -4l13 -16l4 -4l11 -17l-305 -229l-81 58v3l-2 4zM70 429v-180l80 -62v-187h-19h-7h-20h-4h-22h-4h-22h-4h-20v678h20h4h22h4h22h4h20h7h19v-188zM172 340l6 -6l308 -232l-74 -98l-332 249v155l29 -22
l15 -11v0l48 -35v0z" />
    <glyph glyph-name="L" unicode="L" horiz-adv-x="432" 
d="M49 133h-4h-20v545h20h4h22h4h22h5h19h7h19v-545h-19h-7h-19h-5h-22h-4h-22zM158 122h257v-122h-252l-123 122h118z" />
    <glyph glyph-name="M" unicode="M" horiz-adv-x="753" 
d="M22 0v635l124 -285v-350h-21h-5h-21h-5h-19h-7h-20h-6h-20zM151 677l222 -516l-68 -154v0l-278 646l21 4h5h4l15 5v0v0l7 2l20 4h6l20 4l6 3zM377 148l4 6l220 510v-311l-150 -346h-22h-6h-22h-7h-21h-5h-24h-4h-6h-18zM730 653l4 -2v-16v-635h-122v677v0l13 -2v0l7 -3v0
l19 -4v0h7v0l19 -4v0l7 -2l22 -5h2z" />
    <glyph glyph-name="N" unicode="N" horiz-adv-x="577" 
d="M29 2v631l124 -204v-427h-22h-4h-22h-4h-20h-6h-20h-6h-20zM138 672l20 7l258 -429v-237l-378 627l-2 4l19 7h2h3v0l2 2l19 4l5 2l21 5l5 2l22 6h4zM551 679v-640l-124 -32v4v222v22v424h124z" />
    <glyph glyph-name="O" unicode="O" horiz-adv-x="531" 
d="M472 576l22 -20h-120h-216v20v4v22v4v22v4v20v6v20h212l19 -20l7 -6l19 -20l7 -4l20 -22l6 -4l20 -22zM49 135h-6h-20v406l20 19l6 5l20 21l6 5l20 22l4 4l22 20l4 6l22 20v-528h-22h-4h-22h-4h-20h-6h-20zM38 124h120h216v-22v-4v-22v-4v-20v-6v-20v-6v-20h-212l-21 20
l-5 6l-19 20l-7 6l-19 20l-7 4l-20 22l-6 4zM487 545h22v-405l-22 -22l-4 -5l-22 -21l-4 -5l-20 -19l-6 -7l-20 -20l-7 -6l-19 -20v120v410h19h7h20h6h20h4h22h4z" />
    <glyph glyph-name="P" unicode="P" horiz-adv-x="498" 
d="M351 576v-22h-309l22 22l4 4l22 19l4 7l20 20l6 6l20 20l6 6l20 20h185v-20v-6v-20v-6v-20v-7v-19v-4zM151 543v-191h-124v191h22h4h22h4h20h6h20h6h20zM27 0v209h124v-209h-20h-6h-20h-6h-20h-4h-22h-4h-22zM162 341h189h119l-124 -122h-184h-11h-124v122h124h11z
M466 560l19 -21v-187h-19h-7h-19h-7h-19h-7h-20h-4h-22v191v119l22 -19l4 -7l20 -19l7 -7l19 -19l7 -7l19 -19z" />
    <glyph glyph-name="Q" unicode="Q" horiz-adv-x="575" 
d="M510 122l54 -52l-87 -87l-144 139l-7 7l-113 113l87 88l76 -77v0l11 -11v0l116 -113v0zM486 544h6h20v-406h-2l-123 120v286h22h4h20h7h19h7h20zM496 555h-120h-216v22v4v20v6v20v6v20v7v19h212l22 -19l4 -7l20 -20l6 -6l20 -20l7 -6l19 -20l7 -4zM51 133h-4h-22v406
l22 22l4 5l20 19l6 7l20 20l6 6l20 20l7 6l19 20v-120v-411h-19h-7h-20h-6h-20h-6h-20zM160 122h157l59 -56v-16v-4v-22v-4v-20h-212l-19 20l-7 4l-19 22l-7 4l-20 22l-6 4l-20 20l-4 7l-22 19h120zM387 15v40l20 -20z" />
    <glyph glyph-name="R" unicode="R" horiz-adv-x="498" 
d="M459 560l21 -21v-185h-21h-5h-22h-4h-19h-7h-19h-7h-20v191v117l20 -19l7 -7l19 -19l7 -7l19 -19l4 -5l22 -21zM139 658l22 20h185v-20v-6v-20v-4v-22v-4v-22v-4v-20h-309l20 20l6 4l20 22l6 4l20 22l6 4l20 20zM146 543v-189h-124v189h20h6h20h6h20h4h22h4h22zM22 0v209
h124v-209h-22h-4h-22h-4h-20h-6h-20h-6h-20zM146 343h11h189v-119l-5 -5h-184h-11h-124v124h124zM402 280l9 -6l69 -70v-204h-124v219v16v93l46 -48v0zM413 291l-2 -2l-55 54h107l-20 -22l-4 -4l-22 -22z" />
    <glyph glyph-name="S" unicode="S" horiz-adv-x="480" 
d="M170 678h290v-20v-6v-20v-6v-20v-4v-22v-4v-22h-290v22v4v22v4v20v6v20v6v20zM35 122h290h120l-124 -122h-286v122zM434 281l6 -6l20 -20v-122h-20h-6h-20h-6h-20h-4h-22h-4h-22v126v120l22 -21l4 -5l22 -19l4 -7l20 -20l6 -6zM72 373l-22 22h120h155v-22v-5v-19v-7v-19
v-7v-20v-6v-20h-150l-20 20l-7 6l-19 20l-7 7l-19 19l-5 7l-22 19zM61 405h-4h-22v133l22 22l4 5l20 19l6 7l20 19l6 7l20 20l7 6l19 20v-120v-138h-19h-7h-20h-6h-20h-6h-20z" />
    <glyph glyph-name="T" unicode="T" horiz-adv-x="553" 
d="M18 658v20h322l-124 -122h-198v20v4v22v4v20v6v20v6zM220 545l11 11l109 107v-107v-11v-545h-124v538zM351 678h188v-20v-6v-20v-6v-20v-4v-22v-4v-20h-188v122z" />
    <glyph glyph-name="U" unicode="U" horiz-adv-x="504" 
d="M50 133h-4h-22v545h22h4h20h7h19h7h19h5h22v-545h-22h-5h-19h-7h-19h-7h-20zM40 122h119h188v-20v-6v-20v-4v-22v-4v-22v-4v-20h-183l-20 20l-6 4l-20 22l-6 4l-20 22l-7 4l-19 20l-5 6zM358 678h124v-541l-124 -122v118v545z" />
    <glyph glyph-name="V" unicode="V" horiz-adv-x="612" 
d="M130 678l170 -488l-66 -186l-220 633l19 7l5 2l19 6l4 3l21 7l5 1l19 7l7 1zM483 678l117 -41l-223 -637h-109v0h-22z" />
    <glyph glyph-name="W" unicode="W" horiz-adv-x="800" 
d="M131 678l94 -400l-63 -267l-153 639l21 4l5 2l20 5h4l22 6h4l20 5l4 2zM171 0l159 672l64 -267l-97 -405h-19h-7h-22h-4h-22h-4h-9v0h-39zM468 678l94 -400l-63 -267l-94 394v0l-3 15l-61 258h37h9h7h19h7h22h4h22zM669 678l121 -28l-156 -650h-87v0h-40l62 256v0l4 15z
" />
    <glyph glyph-name="X" unicode="X" horiz-adv-x="596" 
d="M291 448l-79 -101l-199 254l16 13l4 2l15 13l5 5l18 11l4 4l15 13l5 3l15 13zM377 338l-79 -102v0l-4 -4l-184 -232l-97 77l199 252v0l2 7l84 103l7 9v0l178 230l100 -77l-199 -254l-7 -9v0zM305 227l79 102l199 -252l-18 -13l-2 -4l-18 -14l-4 -2l-16 -13l-4 -2l-15 -14
l-5 -4l-18 -11z" />
    <glyph glyph-name="Y" unicode="Y" horiz-adv-x="573" 
d="M564 606l-202 -272v31h-130l-2 2l9 13v-2l4 4v0l13 18l2 4v0l7 9l22 31l6 8v0l172 227l15 -11l5 -5l17 -11l4 -4l16 -11l4 -5l18 -11l4 -4zM111 679l169 -227l-66 -87v-31l-204 272l18 11l4 4l16 11l4 5l17 11l5 4l15 11l5 5zM232 354h15h104v-36v0v-17v0v-301h-126v301
v0v17v0v36h7z" />
    <glyph glyph-name="Z" unicode="Z" horiz-adv-x="464" 
d="M378 671l-81 -117h-280v19v7v19v7v20v6v20v4v22h361v-7zM452 543l-279 -408h-141l-4 2l350 515l11 15l8 -20l5 -6l10 -20l3 -6l10 -20l3 -6l10 -20l5 -6zM167 124h13h269l-2 -124h-352l-61 119l-2 5h16h119z" />
    <glyph glyph-name="a" unicode="a" horiz-adv-x="520" 
d="M332 325v0h20v-198h-16h-4v0h-26v6v186v6h19h7zM325 417l7 -6l20 -20v-55h-20h-7h-19v101zM168 432v20h127v-20v-6v-20v-4v-22v-4v-20v-7v-13v0v-6h-127v19v7v20v4v22v4v20v6zM59 133h-5h-21v181l21 20l5 5l22 21l4 5l20 22l6 4l20 20l6 6l20 20v-304h-20h-6h-20h-6h-20
h-4h-22zM50 122h118h127v-122h-123l-19 20l-7 6l-19 20l-5 4l-22 22l-4 4l-22 22l-4 5zM332 116h4h16v-55l-20 -20l-7 -6l-19 -20v101h26zM362 452h125v-452h-125v57v15v44v11v198v11v44v15v57z" />
    <glyph glyph-name="b" unicode="b" horiz-adv-x="494" 
d="M459 336l24 -22v-181h-24h-4h-20h-7h-19h-7h-19h-7h-17v186v118l17 -18l7 -6l19 -20l7 -6l19 -20l7 -4l20 -22zM123 356l22 20l4 4l22 22l4 4l20 22l6 4l20 20h127v-20v-4v-22v-4v-22v-4v-20v-7v-19h-249l19 19zM72 319v-186l77 -76v-57h-20h-6h-20h-7h-19h-5h-21h-5h-22
v679h22h5h21h5h19h7h20h6h20v-284l-77 -76v0v0zM179 319h7h20v-186v-118l-20 20l-7 6l-19 20l-5 7l-21 19l-5 5l-22 22l-4 4l-20 22v179h20h4h22h5h21h5h19zM217 103v19h249l-20 -19l-4 -5l-22 -22l-5 -4l-19 -22l-7 -4l-20 -20l-6 -6l-20 -20h-126v20v6v20v4v22v4v22v5z
" />
    <glyph glyph-name="c" unicode="c" horiz-adv-x="391" 
d="M149 452h227v-20v-4v-22v-4v-22v-4v-20v-7v-19h-227v19v7v20v4v22v4v22v4v20zM29 122h120h227v-122h-222zM40 133h-6h-20v181l20 20l6 5l20 21l6 5l20 22l4 4l22 20l5 6l21 20v-118v-186h-21h-5h-22h-4h-20h-6h-20z" />
    <glyph glyph-name="d" unicode="d" horiz-adv-x="484" 
d="M308 324v0h21v-196h-10h-11v0h-24v7v182v7h19h5zM303 415l5 -4l21 -22v-55h-21h-5h-19v103zM147 430v22h126v-22v-4v-22v-4v-20v-6v-20v-6v-14v0v-6h-126v20v6v20v6v20v4v22v4zM38 135h-4h-22v178l22 19l4 7l20 19l6 7l20 19l7 5l19 22l7 4l19 22v-302h-19h-7h-19h-7h-20
h-6h-20zM28 124h119h126v-124h-122l-19 20l-7 6l-19 20l-7 6l-19 20l-5 6l-21 20l-5 4zM308 117h11h10v-56l-21 -20l-5 -4l-19 -22v102h24zM340 678h122v-678h-122v56v16v45v11v196v10v44v15v285z" />
    <glyph glyph-name="space" unicode=" " horiz-adv-x="301" 
 />
    <glyph glyph-name="e" unicode="e" horiz-adv-x="475" 
d="M448 328h-119h-170v20v6v20v4v22v5v22v4v20h163l22 -20l5 -4l22 -22l4 -5l20 -22l6 -4l20 -20l7 -6zM38 125h121h236v-125h-231zM49 136h-4h-22v176l22 20l4 5l20 22l7 4l20 22l6 4l20 20l4 7l22 20v-119v-181h-22h-4h-20h-6h-20h-7h-20zM159 260v4v22h170v-125h-170v19
v7v20v6v20v5v22zM443 317h20v-16l-20 -22l-6 -4l-20 -20l-5 -6l-22 -20l-4 -7l-22 -20l-4 -6l-20 -20v121v0v20h20h4h22h4h22h5h20h6z" />
    <glyph glyph-name="f" unicode="f" horiz-adv-x="357" 
d="M338 573v-19h-104v19v7v19v7v20v6v20v4v22h104v-22v-4v-20v-6v-20v-7v-19v-7zM6 430v22h82v-124h-82v20v6v20v6v20v6v20v4zM99 463v76l124 123v-119v-80v-11v-124v-11v-317h-124v317v11v124v11zM234 452h108v-22v-4v-20v-6v-20v-6v-20v-6v-20h-108v124z" />
    <glyph glyph-name="g" unicode="g" horiz-adv-x="460" 
d="M304 347v-19h-151v19v7v20v6v20v6v20v4v22h151v-22v-4v-20v-6v-20v-6v-20v-7zM44 134h-4h-22v178l22 20l4 7l22 19l4 7l20 19l7 5l19 22l7 4l19 22v-120v-183h-19h-7h-19h-7h-20h-4h-22zM304 123v-124h-146l-125 124h120h151zM29 -89v42h124v-46v-120zM164 -104h140h120
l-20 -20l-7 -6l-19 -20l-7 -6l-19 -20l-7 -6l-19 -20l-5 -4l-22 -22h-135v22v4v20v6v20v6v20v6v20zM419 452h20v-545h-20h-6h-20h-6h-20h-4h-22h-5h-21v81v146v183v135h21h5h22h4h20h6h20h6z" />
    <glyph glyph-name="h" unicode="h" horiz-adv-x="444" 
d="M147 678v-227l-124 -124v351h19h7h19h7h20h4h22h4h22zM23 0v316h124v-316h-22h-4h-22h-4h-20h-7h-19h-7h-19zM158 447l4 4h131v-19v-7v-20v-6v-20v-6v-20v-4v-22h-135h-11h-109l20 22l6 4l20 20l6 6l20 20l4 6l22 20l4 7l7 4l11 11v0zM304 436l122 -124v-312h-122v316
v120z" />
    <glyph glyph-name="i" unicode="i" horiz-adv-x="187" 
d="M32 640h121v-124h-121v124zM32 0v451h121v-451h-121z" />
    <glyph glyph-name="j" unicode="j" horiz-adv-x="339" 
d="M-64 -99v67h128v-72v-123zM75 -115h107h123l-23 -22l-4 -5l-20 -20l-7 -6l-20 -21l-7 -6l-20 -20l-6 -7l-21 -20h-102v20v7v20v6v21v6v20v5v22zM294 452h4h22v-556h-22h-4h-21h-6h-20h-7h-20h-7h-20v556h20h7h20h7h20h6h21zM193 646h127v-125h-127v125z" />
    <glyph glyph-name="k" unicode="k" horiz-adv-x="379" 
d="M118 299l-11 17l185 135l11 -17l5 -5l11 -15l4 -4l11 -18l4 -4l11 -15l4 -5l11 -17l-161 -118l-81 61zM92 318v-181l50 -39v-98h-20h-4h-22h-4h-22h-4h-20h-7h-19v678h19h7h20h4h22h4h22h4h20v-323zM101 296l265 -198l-74 -98l-139 102v0l-7 7l-45 33v154z" />
    <glyph glyph-name="l" unicode="l" horiz-adv-x="226" 
d="M45 135h-5h-22v544h22h5h21h5h19h7h20h6h20v-544h-20h-6h-20h-7h-19h-5h-21zM154 124h61v-124h-57l-124 124h120z" />
    <glyph glyph-name="m" unicode="m" horiz-adv-x="666" 
d="M147 463v-11l-123 -123v134h22h4h20h6h20h6h20h6h19zM24 2v316h123v-316h-19h-6h-20h-6h-20h-6h-20h-4h-22zM143 431l20 21h99v-21v-5v-19v-7v-19v-7v-19v-7v-19h-104h-11h-108l22 19l4 7l22 19l4 7l20 19l6 7l20 19zM323 385l4 -2l-54 -54v108l19 -22l7 -4l19 -19z
M273 318h117l4 -4v-312h-19h-5h-21h-5h-21h-5h-19h-7h-19v316zM390 431l21 21h98v-21v-5v-19v-7v-19v-7v-19v-7v-19h-115h-15h-91l20 19l6 7l20 19v0v0l8 9v0l18 17l4 7l22 19zM520 437l123 -123v-312h-123v316v119z" />
    <glyph glyph-name="n" unicode="n" horiz-adv-x="450" 
d="M151 463v-11l-122 -124v135h20h6h20h7h19h5h21h5h19zM29 0v317h122v-317h-19h-5h-21h-5h-19h-7h-20h-6h-20zM147 432l22 20h131v-20v-6v-20v-6v-20v-4v-22v-5v-21h-138h-11h-107l20 21l7 5l19 22l7 4l20 20l4 6l22 20zM311 437l122 -125v-312h-122v317v120z" />
    <glyph glyph-name="o" unicode="o" horiz-adv-x="437" 
d="M391 349l22 -22h-267v22v4v20v6v20v6v20v6v20h143l20 -20l6 -6l20 -20l6 -6l20 -20l4 -6l22 -20zM40 134h-5h-23v178l23 22l5 6l19 20l7 6l19 20l7 6l19 20l7 4l17 20v-119v-183h-17h-7h-19h-7h-19h-7h-19zM49 104l-20 20h264v-20v-6v-20v-6v-20v-4v-22v-4v-22h-143
l-19 22l-7 4l-19 22l-4 4l-22 20l-4 6l-22 20zM406 317h22v-178l-22 -20l-4 -6l-22 -20l-4 -6l-20 -20l-6 -4l-20 -22l-6 -4l-20 -22v119v183h20h6h20h6h20h4h22h4z" />
    <glyph glyph-name="p" unicode="p" horiz-adv-x="505" 
d="M468 332l20 -20v-178h-20h-6h-20h-4h-22h-4h-22h-4h-20v183v117l20 -20l4 -4l22 -22l4 -4l22 -22l4 -4l20 -20zM158 377v0l11 11v0l9 11l6 4l20 22l6 4l20 22h125v-22v-4v-22v-4v-20v-6v-20v-6v-20h-249l22 20l4 6l22 20zM80 317v-183l78 -78v-281h-19h-7h-20h-6h-20h-6
h-20h-4h-22v676h22h4h20h6h20h6h20h7h19v-59l-78 -75v0v0zM191 317h4h19v-183v-119l-19 20l-4 4l-20 20l-6 6l-20 20l-6 6l-20 20l-7 6l-21 22v178h21h7h20h6h20h6h20zM225 102v22h247l-19 -22l-7 -4l-19 -22l-4 -4l-22 -20l-4 -6l-22 -20l-5 -6l-19 -20h-126v20v6v20v6v20
v4v22v4z" />
    <glyph glyph-name="q" unicode="q" horiz-adv-x="486" 
d="M320 404l4 -4l11 -11v-61h-187v20v6v20v6v20v4v22v4v22h126l20 -22l6 -4zM42 135h-4h-24v178l24 21l4 5l20 22l6 4l20 22l6 4l20 20l6 6l18 17v-117v-182h-18h-6h-20h-6h-20h-6h-20zM51 102l-20 22h248v-22v-4v-22v-4v-20v-6v-20v-6v-20h-126l-20 20l-6 6l-20 20l-6 6
l-20 20l-4 4l-22 22zM309 317h7h19v-256l-19 -20l-7 -6l-19 -20v120v182h19zM346 452h124v-678h-124v678z" />
    <glyph glyph-name="r" unicode="r" horiz-adv-x="323" 
d="M143 463v-11l-122 -122v133h19h5h22h4h22h4h20h6h20zM21 0v319h122v-319h-20h-6h-20h-4h-22h-4h-22h-5h-19zM158 452h162v-122h-284l107 107v0l11 11v0z" />
    <glyph glyph-name="s" unicode="s" 
d="M398 349v-22h-252v22v4v20v6v20v6v20v6v20h252v-20v-6v-20v-6v-20v-6v-20v-4zM38 297h-5h-19v15l19 20l5 6l22 20l4 6l22 20l4 6l19 20l7 4l19 22v-119v-20h-19h-7h-19h-4h-22h-4h-22zM79 234l-4 7l-20 19l-6 7l-20 19h117h176v-19v-7v-19v-7v-19v-7v-19v-5v-21h-171
l-20 21l-4 5l-22 19l-4 7zM60 124h262h119l-123 -124h-258v124zM435 169l21 -22v-13h-21h-5h-21h-5h-19h-7h-19h-7h-19v18v119l19 -20l7 -6l19 -20l7 -6l19 -20l5 -6l21 -20z" />
    <glyph glyph-name="t" unicode="t" horiz-adv-x="346" 
d="M335 347v-20h-94v124h94v-22v-4v-22v-4v-20v-6v-20v-6zM14 429v22h82v-124h-82v20v6v20v6v20v4v22v4zM133 134h-6h-20v419h20h6h20h6h20h6h20h4h22v-91v0v-11v0v-124v0v-10v0v-183h-22h-4h-20h-6h-20h-6h-20zM241 124h91v-124h-86l-124 124h119z" />
    <glyph glyph-name="u" unicode="u" horiz-adv-x="437" 
d="M38 134h-4h-20v317h20h4h22h4h22h4h20h6h20v-317h-20h-6h-20h-4h-22h-4h-22zM30 124h117h134v-124h-130zM292 451h124v-462h-124v145v317z" />
    <glyph glyph-name="v" unicode="v" horiz-adv-x="518" 
d="M122 461l130 -304l-66 -157h-2l-177 411l20 9l4 2l20 9l5 2l19 6l5 3l17 8l7 3zM396 461l114 -50l-176 -411h-137l2 7l60 137v0l4 11z" />
    <glyph glyph-name="w" unicode="w" horiz-adv-x="689" 
d="M129 459l70 -234l-63 -221l-125 420l16 4l4 2l20 7h6l18 6l6 3l20 4l4 2zM206 207l70 234l63 -218l-66 -223h-19h-7h-22h-4h-22h-6h-18h-4h-5h-21l61 205v2zM413 452l66 -229l-64 -219l-131 448h18v0h4h20h6h22h5h21h7h26zM562 459l118 -35l-127 -424h-98h-31l66 218l2 7
z" />
    <glyph glyph-name="x" unicode="x" horiz-adv-x="409" 
d="M199 342l-77 -101l-113 145l18 11l4 5l16 11l4 4l18 14l4 2l16 13l4 2l16 13zM285 230l-79 -102v0l-7 -11v0l-90 -117l-100 75l197 258l2 3l95 125l99 -75l-110 -145v0l-7 -11v0zM292 221l110 -146l-15 -11l-4 -4l-18 -14l-5 -2l-15 -13l-4 -2l-16 -14l-4 -2l-18 -13
l-90 117z" />
    <glyph glyph-name="y" unicode="y" horiz-adv-x="492" 
d="M240 209l-70 -161l-157 365l19 10l6 2l19 9l4 2l21 7l4 2l20 9l5 3l20 9zM363 466l118 -53l-157 -365v0l-9 -22v0l-118 -270l-118 52l93 215l5 9v0l70 164l2 4z" />
    <glyph glyph-name="z" unicode="z" horiz-adv-x="363" 
d="M221 380l-46 -52h-152v22v4v20v6v20v6v20v6v20h263l-18 -20v0l-6 -6l-18 -20v0l-4 -6zM47 135h-7h-28l167 182l9 11l106 115l55 -122l-5 -4l-165 -182h-28h-6h-29h-6h-28h-7h-28zM212 124h15h120v-20v-6v-20v-6v-20v-4v-22v-4v-22h-274h-4l-55 124h18h6h28h7h26h9h26h8
h26h16h28z" />
    <glyph glyph-name="zero" unicode="0" 
d="M420 573l20 -19h-120h-167v19v7v19v5v22v4v22v4v22h163l21 -22l5 -4l19 -22l7 -4l19 -22l7 -5l19 -19zM46 135h-6h-20v404l20 19l6 7l20 19l4 5l22 21l4 5l22 21l4 5l20 19v-117v-408h-20h-4h-22h-4h-22h-4h-20zM36 124h117h167v-22v-4v-20v-6v-20v-6v-20v-6v-20h-163
l-19 20l-5 6l-21 20l-5 6l-22 20l-4 6l-19 20l-7 4zM435 543h20v-404l-20 -22l-6 -4l-20 -20l-6 -6l-20 -20l-6 -6l-20 -20l-4 -6l-22 -20v120v408h22h4h20h6h20h6h20h6z" />
    <glyph glyph-name="one" unicode="1" horiz-adv-x="294" 
d="M12 659v20h133v-20v-6v-20v-6v-20v-6v-20v-4v-22h-133v22v4v20v6v20v6v20v6zM156 664l124 -124v-540h-124v544v120z" />
    <glyph glyph-name="two" unicode="2" horiz-adv-x="425" 
d="M278 574v-19h-235v19v7v20v6v20v6v20v4v22h235v-22v-4v-20v-6v-20v-6v-20v-7zM392 559l21 -19v-135h-21h-5h-22h-4h-19h-7h-20h-6h-20v139v120l20 -22l6 -4l20 -22l7 -5l19 -19l4 -7l22 -19zM152 394h126h118l-20 -20l-4 -4l-22 -22l-4 -4l-20 -22l-6 -4l-20 -20l-6 -6
l-20 -20h-122v20v6v20v4v22v4v22v4v20zM33 124h119h261v-124h-256zM43 135h-6h-20v122l20 19l6 7l20 19l7 5l19 22l7 4l19 22l5 4l21 20v-118v-126h-21h-5h-19h-7h-19h-7h-20z" />
    <glyph glyph-name="three" unicode="3" horiz-adv-x="420" 
d="M16 0v122l373 2l-125 -124h-248zM83 371v4v22h186v-120l-5 -5h-181v20v7v19v7v19v5v22zM280 288v91l124 -122v-122h-124v137v0v16v0zM336 344l-2 -2l-54 55h109l-20 -22l-7 -4l-19 -22zM269 578v-22h-253v22v4v20v6v20v6v20v7v19h253v-19v-7v-20v-6v-20v-6v-20v-4z
M384 560l20 -19v-133h-20h-6h-20h-6h-20h-4h-22h-5h-21v137v120l21 -22l5 -4l22 -20l4 -6l20 -20l6 -7l20 -19z" />
    <glyph glyph-name="four" unicode="4" horiz-adv-x="421" 
d="M43 407h-6h-20v272h20h6h20h4h22h5h22h4h20v-272h-20h-4h-22h-5h-22h-4h-20zM157 273l-125 123h237v-123h-112zM280 678h122v-678h-122v263v144v271z" />
    <glyph glyph-name="five" unicode="5" horiz-adv-x="433" 
d="M405 558h-247h-134v122h381v-122zM51 396h-7h-20v151h20h7h19h5h22h4h22h4h20v-151h-20h-4h-22h-4h-22h-5h-19zM40 385h118h129v-20v-6v-20v-6v-20v-4v-22v-5v-22h-123l-22 22l-4 5l-22 22l-4 4l-20 20l-6 6l-20 20l-7 6zM24 123h263h118l-122 -123h-259v123zM401 267
l19 -22v-112h-19h-5h-22h-4h-22h-4h-20h-6h-20v116v121l20 -20l6 -6l20 -20l4 -7l22 -19l4 -7l22 -20z" />
    <glyph glyph-name="six" unicode="6" horiz-adv-x="448" 
d="M299 394l122 -122h-117h-150v122h145zM360 577v-22h-206v22v4v20v6v20v6v20v6v20h206v-20v-6v-20v-6v-20v-6v-20v-4zM45 135h-5h-19v405l19 21l5 5l22 19l4 7l22 19l4 7l20 20l6 6l20 20v-120v-139v-144v-126h-20h-6h-20h-4h-22h-4h-22zM36 124h118h150v-22v-4v-22v-4
v-20v-6v-20v-6v-20h-146l-20 20l-6 6l-20 20l-4 6l-22 20l-4 4l-20 22l-6 4zM417 261h20v-122l-20 -21l-7 -5l-19 -22l-5 -4l-21 -20l-5 -6l-21 -20l-5 -6l-19 -20v120v126h19h5h21h5h21h5h19h7z" />
    <glyph glyph-name="seven" unicode="7" horiz-adv-x="448" 
d="M16 416v127h122v-127h-122zM16 658v20h279v-20v-6v-20v-6v-20v-4v-22v-4v-22h-146h-133v22v4v22v4v20v6v20v6zM306 663l125 -125v-538h-125v543v120z" />
    <glyph glyph-name="eight" unicode="8" 
d="M436 555h-117h-164v19v7v20v6v20v4v22v4v22h159l20 -22l4 -4l22 -22l4 -4l22 -20l4 -6l20 -20l7 -7zM47 405h-5h-19v135l19 19l5 7l21 19l5 5l21 21l5 5l19 22l7 4l20 20v-257h-20h-7h-19h-5h-21h-5h-21zM57 374l-19 20h111l-57 -55l-4 5l-4 4l-20 22zM101 331v0l63 63
h155v-122h-159v0h-15h-105l52 52zM123 261h4h22v-126v0v-120l-22 22l-4 4l-20 20l-6 6l-20 20l-6 7l-20 19l-7 7l-19 19v122h19h7h20h6h20h6h20zM160 124h159h117l-19 -20l-7 -6l-20 -20l-4 -6l-22 -20l-4 -6l-22 -20l-4 -4l-20 -22h-154v124zM425 283l7 -7l19 -19v-122h-19
h-7h-19h-5h-21h-5h-19h-7h-20v126v0v11l53 54l19 -19l5 -5zM432 544h19v-135l-19 -19l-7 -5l-19 -22l-5 -4l-19 -17l-2 -5l-5 -4v0l-19 -20l-7 -6l-20 -20v118v0v139h20h7h19h5h21h5h19h7z" />
    <glyph glyph-name="nine" unicode="9" horiz-adv-x="466" 
d="M423 554h-120h-148v22v4v19v7v20v6v20v4v22h144l20 -22l6 -4l20 -20l6 -6l20 -20l7 -7l19 -19l5 -4zM46 416h-6h-20v122l20 20l6 7l20 19l6 7l20 19l7 7l19 20l5 4l21 22v-120v-127h-21h-5h-19h-7h-20h-6h-20zM303 281h-143l-125 124h120h148v-124zM103 122h200h120
l-124 -122h-196v122zM419 543h20v-410h-20h-7h-19h-7h-19h-7h-19h-5h-22v137v146v127h22h5h19h7h19h7h19h7z" />
    <glyph glyph-name="ampersand" unicode="&#x26;" horiz-adv-x="444" 
d="M322 526l-79 -79l-120 120h160zM188 488l-152 -150v158l73 73zM155 358l-80 -79l-41 43l79 79zM322 510v-158l-280 -279v158zM40 57l79 79l138 -136h-158zM356 241l79 -79l-162 -164l-81 79zM228 126l-58 60l79 79l60 -59zM322 34l80 79l25 -28l-79 -79z" />
    <glyph glyph-name="A" unicode="A" horiz-adv-x="597" 
d="M574 98l-166 108l-164 483h22h6h22h4h22h6h22h4h22zM236 318l-80 54l-65 -99l143 412l64 -188zM16 53l67 194l105 -69l-58 -166l-19 6l-5 2l-19 7l-4 2l-20 7l-4 2l-20 6l-4 2zM236 307l6 -4l326 -214l-20 -15l-82 -64l-375 243l67 104z" />
    <glyph glyph-name="exclam" unicode="!" horiz-adv-x="156" 
d="M17 123h124v-123h-124v123zM17 679h124v-487h-124v487z" />
    <glyph glyph-name="period" unicode="." horiz-adv-x="155" 
d="M17 0v123h124v-123h-124z" />
    <glyph glyph-name="question" unicode="?" horiz-adv-x="494" 
d="M186 124h124v-124h-124v124zM143 422h-22h-5h-20h-6h-19h-6h-21h-6h-19v121h19h6h21h6h19h6h20h5h22v-121zM152 555h-118l20 19l5 6l22 21l5 6l20 20l6 5l19 20l6 6l21 21h186v-21v-6v-20v-5v-20v-6v-21v-6v-19h-192zM309 193h-124v65l124 124v-120v-69zM442 376l-5 -6
l-21 -19l-5 -6l-21 -21l-5 -4l-20 -22l-6 -5l-21 -20h-19v20v5v22v4v21v6v19v6v20h25h118zM458 407h-6h-21h-5h-20h-6h-19h-6h-21v136v120l21 -21l6 -6l19 -19l6 -6l20 -20l5 -5l21 -21l6 -6l20 -20v-132h-20z" />
    <glyph glyph-name="less" unicode="&#x3c;" horiz-adv-x="326" 
d="M217 649l89 -89l-287 -287l-1 178zM289 125l-15 -15l-4 -4l-15 -15l-4 -4l-14 -14l-4 -4l-15 -15l-201 201l89 89l201 -201l-15 -14z" />
    <glyph glyph-name="greater" unicode="&#x3e;" horiz-adv-x="320" 
d="M110 649l196 -196v-176l-283 284zM109 62l-14 15l-4 3l-15 15l-3 4l-15 14l-4 4l-14 15l-4 3l-14 15l198 198l87 -88z" />
  </font>
</defs>
</svg>
